<svg width="264" height="50" viewBox="0 0 264 50" fill="none" xmlns="http://www.w3.org/2000/svg">
<path d="M10 2.4H2.5V21.6H17.5V9.6H11.25C10.5596 9.6 10 9.06274 10 8.4V2.4ZM16.9822 7.2L12.5 2.89706V7.2H16.9822ZM20 7.2V22.8C20 23.4627 19.4404 24 18.75 24H1.25C0.559644 24 0 23.4627 0 22.8V1.2C0 0.537258 0.559644 0 1.25 0H12.5C12.8315 0 13.1495 0.126428 13.3839 0.351472L19.6339 6.35147C19.8683 6.57652 20 6.88174 20 7.2Z" fill="#2B2D33"/>
<path d="M34.8 9.616H36.208C36.432 8.512 37.376 7.888 38.72 7.888C40.064 7.888 40.96 8.592 40.96 9.728C40.96 10.768 40.272 11.568 38.784 11.568H37.168V12.864H38.88C40.32 12.864 41.376 13.44 41.376 14.784C41.376 16.048 40.416 16.848 38.88 16.848C37.248 16.848 36.336 16.048 36.112 15.024H34.688C34.928 17.008 36.56 18.176 38.88 18.176C41.264 18.176 42.832 16.72 42.832 14.8C42.832 13.072 41.536 12.288 40.816 12.112C41.616 11.824 42.416 10.96 42.416 9.68C42.416 7.856 40.96 6.56 38.72 6.56C36.832 6.56 35.04 7.552 34.8 9.616ZM47.8177 9.76C45.9778 9.76 44.8578 10.8 44.6018 12.048H45.9298C46.1538 11.456 46.7298 10.976 47.7858 10.976C48.8258 10.976 49.6098 11.536 49.6098 12.656V13.2H47.4658C45.4978 13.2 44.2978 14.144 44.2978 15.696C44.2978 17.232 45.5138 18.176 47.0818 18.176C48.1058 18.176 49.0658 17.792 49.6738 17.04V18H50.9698V12.656C50.9698 10.848 49.7058 9.76 47.8177 9.76ZM47.2578 16.976C46.3618 16.976 45.6898 16.528 45.6898 15.68C45.6898 14.816 46.4418 14.368 47.5458 14.368H49.6098V14.96C49.6098 16.192 48.5378 16.976 47.2578 16.976ZM53.2938 9.936V18H54.6698V11.168H58.6058V18H59.9818V9.936H53.2938ZM65.7795 9.76C63.4275 9.76 61.9075 11.52 61.9075 13.968C61.9075 16.416 63.4275 18.176 65.7795 18.176C68.1315 18.176 69.6515 16.416 69.6515 13.968C69.6515 11.52 68.1315 9.76 65.7795 9.76ZM65.7795 16.928C64.2595 16.928 63.3155 15.728 63.3155 13.968C63.3155 12.208 64.2595 11.008 65.7795 11.008C67.2995 11.008 68.2435 12.208 68.2435 13.968C68.2435 15.728 67.2995 16.928 65.7795 16.928ZM72.5224 9.936L72.1064 14.88C71.9944 16.272 71.7064 16.784 70.6984 16.784H70.4744V18.032H70.8584C72.5064 18.032 73.2584 17.168 73.4344 14.976L73.7544 11.168H76.7144V18H78.0904V9.936H72.5224ZM85.8569 9.936V13.184H81.8729V9.936H80.4969V18H81.8729V14.432H85.8569V18H87.2329V9.936H85.8569ZM95.1095 9.936L90.9975 15.872V9.936H89.6375V18H90.9975L95.1095 12.064V18H96.4695V9.936H95.1095ZM104.984 9.936H98.1839V11.168H100.888V18H102.264V11.168H104.984V9.936ZM113.126 14.384V13.68C113.126 11.28 111.75 9.76 109.606 9.76C107.398 9.76 105.814 11.36 105.814 13.968C105.814 16.56 107.382 18.176 109.718 18.176C111.814 18.176 112.822 16.864 113.03 15.92H111.638C111.494 16.336 110.854 16.944 109.734 16.944C108.246 16.944 107.254 15.856 107.254 14.416V14.384H113.126ZM109.574 10.992C110.87 10.992 111.67 11.824 111.734 13.216H107.27C107.382 11.888 108.23 10.992 109.574 10.992ZM121.951 9.76C119.599 9.76 118.079 11.52 118.079 13.968C118.079 16.416 119.599 18.176 121.951 18.176C124.303 18.176 125.823 16.416 125.823 13.968C125.823 11.52 124.303 9.76 121.951 9.76ZM121.951 16.928C120.431 16.928 119.487 15.728 119.487 13.968C119.487 12.208 120.431 11.008 121.951 11.008C123.471 11.008 124.415 12.208 124.415 13.968C124.415 15.728 123.471 16.928 121.951 16.928ZM133.107 9.936V13.184H129.123V9.936H127.747V18H129.123V14.432H133.107V18H134.483V9.936H133.107ZM137.976 9.936L137.56 14.88C137.448 16.272 137.16 16.784 136.152 16.784H135.928V18.032H136.312C137.96 18.032 138.712 17.168 138.888 14.976L139.208 11.168H142.168V18H143.544V9.936H137.976ZM148.974 9.76C147.134 9.76 146.014 10.8 145.758 12.048H147.086C147.31 11.456 147.886 10.976 148.942 10.976C149.982 10.976 150.766 11.536 150.766 12.656V13.2H148.622C146.654 13.2 145.454 14.144 145.454 15.696C145.454 17.232 146.67 18.176 148.238 18.176C149.262 18.176 150.222 17.792 150.83 17.04V18H152.126V12.656C152.126 10.848 150.862 9.76 148.974 9.76ZM148.414 16.976C147.518 16.976 146.846 16.528 146.846 15.68C146.846 14.816 147.598 14.368 148.702 14.368H150.766V14.96C150.766 16.192 149.694 16.976 148.414 16.976ZM157.874 8.736C159.378 8.736 160.386 7.728 160.418 6.24H159.186C159.186 7.008 158.738 7.648 157.874 7.648C157.01 7.648 156.562 7.008 156.562 6.24H155.33C155.362 7.728 156.37 8.736 157.874 8.736ZM159.922 9.936L155.81 15.872V9.936H154.45V18H155.81L159.922 12.064V18H161.282V9.936H159.922ZM169.044 9.936V13.184H165.06V9.936H163.684V18H165.06V14.432H169.044V18H170.42V9.936H169.044ZM172.505 14.336H177.481V13.024H172.505V14.336ZM179.003 12.096H180.347C180.507 11.472 181.099 10.976 182.123 10.976C183.051 10.976 183.643 11.392 183.643 12.112C183.643 12.864 183.099 13.296 182.123 13.296H180.939V14.48H182.203C183.355 14.48 183.963 14.88 183.963 15.664C183.963 16.48 183.259 16.96 182.187 16.96C181.163 16.96 180.395 16.512 180.203 15.696H178.843C179.051 17.344 180.459 18.176 182.155 18.176C183.963 18.176 185.339 17.216 185.339 15.68C185.339 14.448 184.443 13.936 183.851 13.792C184.411 13.568 185.003 13.04 185.003 12.064C185.003 10.64 183.771 9.76 182.171 9.76C180.603 9.76 179.179 10.56 179.003 12.096ZM190.286 9.76C188.447 9.76 187.327 10.8 187.071 12.048H188.399C188.623 11.456 189.199 10.976 190.255 10.976C191.295 10.976 192.079 11.536 192.079 12.656V13.2H189.935C187.967 13.2 186.767 14.144 186.767 15.696C186.767 17.232 187.983 18.176 189.551 18.176C190.575 18.176 191.535 17.792 192.143 17.04V18H193.439V12.656C193.439 10.848 192.175 9.76 190.286 9.76ZM189.727 16.976C188.831 16.976 188.159 16.528 188.159 15.68C188.159 14.816 188.911 14.368 190.015 14.368H192.079V14.96C192.079 16.192 191.007 16.976 189.727 16.976ZM198.259 9.936C196.435 9.936 195.411 11.12 195.411 12.592C195.411 13.744 196.067 14.72 197.187 15.088L194.963 18H196.562L198.643 15.264H200.083V18H201.459V9.936H198.259ZM198.419 14.064C197.395 14.064 196.787 13.456 196.787 12.592C196.787 11.744 197.395 11.136 198.419 11.136H200.083V14.064H198.419ZM208.752 13.744C209.28 13.536 209.808 12.96 209.808 12.016C209.808 10.864 208.992 9.936 207.28 9.936H203.856V18H207.472C209.2 18 210.16 17.008 210.16 15.712C210.16 14.592 209.472 13.936 208.752 13.744ZM208.448 12.176C208.448 12.848 208 13.28 207.152 13.28H205.216V11.12H207.152C208 11.12 208.448 11.488 208.448 12.176ZM207.312 16.816H205.216V14.448H207.312C208.304 14.448 208.784 14.864 208.784 15.6C208.784 16.352 208.304 16.816 207.312 16.816ZM218.731 18L214.891 13.696L218.683 9.936H216.939L213.451 13.392V9.936H212.075V18H213.451V14.096L216.955 18H218.731ZM225.545 9.936L223.129 16.224L220.697 9.936H219.209L222.393 17.904L221.129 21.056H222.617L227.033 9.936H225.545ZM228.253 16.224C227.709 16.224 227.261 16.64 227.261 17.2C227.261 17.76 227.709 18.176 228.253 18.176C228.797 18.176 229.245 17.76 229.245 17.2C229.245 16.64 228.797 16.224 228.253 16.224ZM39.408 30.56C36.768 30.56 35.184 32.224 34.8 34.08H36.224C36.608 32.96 37.584 31.888 39.408 31.888C41.36 31.888 42.736 33.296 42.976 35.6H38.08V36.88H42.992C42.848 39.296 41.44 40.848 39.408 40.848C37.408 40.848 36.48 39.52 36.192 38.64H34.752C35.056 40.128 36.4 42.176 39.392 42.176C42.32 42.176 44.464 39.952 44.464 36.368C44.464 32.832 42.384 30.56 39.408 30.56ZM52.6089 33.936H45.8089V35.168H48.5129V42H49.8889V35.168H52.6089V33.936ZM57.3108 33.76C54.9588 33.76 53.4388 35.52 53.4388 37.968C53.4388 40.416 54.9588 42.176 57.3108 42.176C59.6628 42.176 61.1828 40.416 61.1828 37.968C61.1828 35.52 59.6628 33.76 57.3108 33.76ZM57.3108 40.928C55.7908 40.928 54.8468 39.728 54.8468 37.968C54.8468 36.208 55.7908 35.008 57.3108 35.008C58.8308 35.008 59.7748 36.208 59.7748 37.968C59.7748 39.728 58.8308 40.928 57.3108 40.928ZM66.2219 36.096H67.5659C67.7259 35.472 68.3179 34.976 69.3419 34.976C70.2699 34.976 70.8619 35.392 70.8619 36.112C70.8619 36.864 70.3179 37.296 69.3419 37.296H68.1579V38.48H69.4219C70.5739 38.48 71.1819 38.88 71.1819 39.664C71.1819 40.48 70.4779 40.96 69.4059 40.96C68.3819 40.96 67.6139 40.512 67.4219 39.696H66.0619C66.2699 41.344 67.6779 42.176 69.3739 42.176C71.1819 42.176 72.5579 41.216 72.5579 39.68C72.5579 38.448 71.6619 37.936 71.0699 37.792C71.6299 37.568 72.2219 37.04 72.2219 36.064C72.2219 34.64 70.9899 33.76 69.3899 33.76C67.8219 33.76 66.3979 34.56 66.2219 36.096ZM77.5052 33.76C75.6653 33.76 74.5453 34.8 74.2893 36.048H75.6173C75.8413 35.456 76.4173 34.976 77.4733 34.976C78.5133 34.976 79.2973 35.536 79.2973 36.656V37.2H77.1533C75.1853 37.2 73.9853 38.144 73.9853 39.696C73.9853 41.232 75.2013 42.176 76.7693 42.176C77.7933 42.176 78.7533 41.792 79.3613 41.04V42H80.6573V36.656C80.6573 34.848 79.3933 33.76 77.5052 33.76ZM76.9453 40.976C76.0493 40.976 75.3773 40.528 75.3773 39.68C75.3773 38.816 76.1293 38.368 77.2333 38.368H79.2973V38.96C79.2973 40.192 78.2253 40.976 76.9453 40.976ZM86.4053 32.736C87.9093 32.736 88.9173 31.728 88.9493 30.24H87.7173C87.7173 31.008 87.2693 31.648 86.4053 31.648C85.5413 31.648 85.0933 31.008 85.0933 30.24H83.8613C83.8932 31.728 84.9013 32.736 86.4053 32.736ZM88.4533 33.936L84.3413 39.872V33.936H82.9813V42H84.3413L88.4533 36.064V42H89.8133V33.936H88.4533ZM99.7516 33.936L96.8236 40.368L93.8956 33.936H92.2156V42H93.5596V36.144L96.2476 42H97.3996L100.072 36.144V42H101.416V33.936H99.7516ZM110.641 38.384V37.68C110.641 35.28 109.265 33.76 107.121 33.76C104.913 33.76 103.329 35.36 103.329 37.968C103.329 40.56 104.897 42.176 107.233 42.176C109.329 42.176 110.337 40.864 110.545 39.92H109.153C109.009 40.336 108.369 40.944 107.249 40.944C105.761 40.944 104.769 39.856 104.769 38.416V38.384H110.641ZM107.089 34.992C108.385 34.992 109.185 35.824 109.249 37.216H104.785C104.897 35.888 105.745 34.992 107.089 34.992ZM118.359 33.936H111.559V35.168H114.263V42H115.639V35.168H118.359V33.936ZM128.951 33.936V37.184H124.967V33.936H123.591V42H124.967V38.432H128.951V42H130.327V33.936H128.951ZM139.563 38.384V37.68C139.563 35.28 138.187 33.76 136.043 33.76C133.835 33.76 132.251 35.36 132.251 37.968C132.251 40.56 133.819 42.176 136.155 42.176C138.251 42.176 139.259 40.864 139.467 39.92H138.075C137.931 40.336 137.291 40.944 136.171 40.944C134.683 40.944 133.691 39.856 133.691 38.416V38.384H139.563ZM136.011 34.992C137.307 34.992 138.107 35.824 138.171 37.216H133.707C133.819 35.888 134.667 34.992 136.011 34.992ZM148.821 33.936C147.605 33.936 146.629 34.4 146.021 35.296C146.213 33.472 146.949 32.464 148.773 32.128L151.717 31.584V30.256L148.485 30.912C145.765 31.472 144.629 33.248 144.629 37.28C144.629 40.4 146.229 42.176 148.693 42.176C151.045 42.176 152.517 40.336 152.517 38.032C152.517 35.392 150.901 33.936 148.821 33.936ZM148.629 40.928C147.109 40.928 146.085 39.792 146.085 37.968C146.085 36.16 147.221 35.168 148.645 35.168C150.133 35.168 151.109 36.352 151.109 38.032C151.109 39.712 150.149 40.928 148.629 40.928ZM157.826 33.76C155.474 33.76 153.954 35.52 153.954 37.968C153.954 40.416 155.474 42.176 157.826 42.176C160.178 42.176 161.698 40.416 161.698 37.968C161.698 35.52 160.178 33.76 157.826 33.76ZM157.826 40.928C156.306 40.928 155.362 39.728 155.362 37.968C155.362 36.208 156.306 35.008 157.826 35.008C159.346 35.008 160.29 36.208 160.29 37.968C160.29 39.728 159.346 40.928 157.826 40.928ZM164.569 33.936L164.153 38.88C164.041 40.272 163.753 40.784 162.745 40.784H162.521V42.032H162.905C164.553 42.032 165.305 41.168 165.481 38.976L165.801 35.168H168.761V42H170.137V33.936H164.569ZM175.728 36.544H173.92V33.936H172.544V42H175.712C177.44 42 178.56 40.816 178.56 39.248C178.56 37.68 177.44 36.544 175.728 36.544ZM175.552 40.784H173.92V37.76H175.552C176.608 37.76 177.184 38.384 177.184 39.248C177.184 40.112 176.608 40.784 175.552 40.784ZM189.363 33.936V40.752H186.259V33.936H184.883V40.752H181.779V33.936H180.403V42H190.739V33.936H189.363ZM199.97 38.384V37.68C199.97 35.28 198.594 33.76 196.45 33.76C194.242 33.76 192.658 35.36 192.658 37.968C192.658 40.56 194.226 42.176 196.562 42.176C198.658 42.176 199.666 40.864 199.874 39.92H198.482C198.338 40.336 197.698 40.944 196.578 40.944C195.09 40.944 194.098 39.856 194.098 38.416V38.384H199.97ZM196.418 34.992C197.714 34.992 198.514 35.824 198.578 37.216H194.114C194.226 35.888 195.074 34.992 196.418 34.992ZM209.563 34.624C208.427 34.624 207.499 35.008 206.859 35.712L207.179 32.048H212.619V30.736H205.963L205.419 37.168H206.859C207.451 36.352 208.283 35.92 209.339 35.92C210.651 35.92 211.787 36.832 211.787 38.336C211.787 39.84 210.795 40.864 209.291 40.864C207.771 40.864 206.955 39.904 206.779 39.12H205.323C205.547 40.752 207.019 42.176 209.307 42.176C211.515 42.176 213.243 40.672 213.243 38.32C213.243 36 211.451 34.624 209.563 34.624ZM226.424 33.936L223.496 40.368L220.568 33.936H218.888V42H220.232V36.144L222.92 42H224.072L226.744 36.144V42H228.088V33.936H226.424ZM235.953 33.936L231.841 39.872V33.936H230.481V42H231.841L235.953 36.064V42H237.313V33.936H235.953ZM245.076 33.936V37.184H241.092V33.936H239.716V42H241.092V38.432H245.076V42H246.452V33.936H245.076ZM254.232 33.936L251.816 40.224L249.384 33.936H247.896L251.08 41.904L249.816 45.056H251.304L255.72 33.936H254.232ZM263.265 33.936H256.465V35.168H259.169V42H260.545V35.168H263.265V33.936Z" fill="#2B2D33"/>
</svg>
