<svg width="249" height="50" viewBox="0 0 249 50" fill="none" xmlns="http://www.w3.org/2000/svg">
<path d="M19.4118 2.52607H2.58824V17.6825H6.47059C7.18531 17.6825 7.76471 18.248 7.76471 18.9456V20.2086L10.8706 17.9351C11.0946 17.7712 11.3671 17.6825 11.6471 17.6825H19.4118V2.52607ZM5.17647 20.2086H1.29412C0.579396 20.2086 0 19.6431 0 18.9456V1.26304C0 0.565481 0.579396 0 1.29412 0H20.7059C21.4206 0 22 0.565481 22 1.26304V18.9456C22 19.6431 21.4206 20.2086 20.7059 20.2086H12.0784L7.24706 23.7451C6.39393 24.3696 5.17647 23.7755 5.17647 22.7347V20.2086ZM5.17647 13.8934V11.3673H16.8235V13.8934H5.17647ZM5.17647 8.84126V6.31519H16.8235V8.84126H5.17647Z" fill="#2B2D33"/>
<path d="M43.824 6.736V11.792C43.248 12.192 42.416 12.48 41.344 12.48C39.68 12.48 38.384 11.584 38.384 9.568V6.736H36.96V9.584C36.96 12.48 38.896 13.808 41.2 13.808C42.368 13.808 43.2 13.568 43.824 13.168V18H45.248V6.736H43.824ZM54.6883 14.384V13.68C54.6883 11.28 53.3123 9.76 51.1683 9.76C48.9603 9.76 47.3763 11.36 47.3763 13.968C47.3763 16.56 48.9443 18.176 51.2803 18.176C53.3763 18.176 54.3843 16.864 54.5923 15.92H53.2003C53.0563 16.336 52.4163 16.944 51.2963 16.944C49.8083 16.944 48.8163 15.856 48.8163 14.416V14.384H54.6883ZM51.1363 10.992C52.4323 10.992 53.2323 11.824 53.2963 13.216H48.8323C48.9443 11.888 49.7923 10.992 51.1363 10.992ZM60.5743 9.76C59.1823 9.76 58.3343 10.4 57.9343 11.088V9.936H56.6063V21.056H57.9823V17.008C58.3663 17.6 59.2303 18.176 60.5263 18.176C62.3823 18.176 64.2063 16.816 64.2063 13.968C64.2063 11.136 62.3983 9.76 60.5743 9.76ZM60.3983 16.928C58.9103 16.928 57.9343 15.792 57.9343 14V13.936C57.9343 12.144 58.9103 11.008 60.3983 11.008C61.8383 11.008 62.7983 12.208 62.7983 13.968C62.7983 15.728 61.8383 16.928 60.3983 16.928ZM72.9539 14.384V13.68C72.9539 11.28 71.5779 9.76 69.4339 9.76C67.2259 9.76 65.6419 11.36 65.6419 13.968C65.6419 16.56 67.2099 18.176 69.5459 18.176C71.6419 18.176 72.6499 16.864 72.8579 15.92H71.4659C71.3219 16.336 70.6819 16.944 69.5619 16.944C68.0739 16.944 67.0819 15.856 67.0819 14.416V14.384H72.9539ZM69.4019 10.992C70.6979 10.992 71.4979 11.824 71.5619 13.216H67.0979C67.2099 11.888 68.0579 10.992 69.4019 10.992ZM74.3938 12.096H75.7378C75.8978 11.472 76.4898 10.976 77.5138 10.976C78.4418 10.976 79.0338 11.392 79.0338 12.112C79.0338 12.864 78.4898 13.296 77.5138 13.296H76.3298V14.48H77.5938C78.7458 14.48 79.3538 14.88 79.3538 15.664C79.3538 16.48 78.6498 16.96 77.5778 16.96C76.5538 16.96 75.7858 16.512 75.5938 15.696H74.2338C74.4418 17.344 75.8498 18.176 77.5458 18.176C79.3538 18.176 80.7298 17.216 80.7298 15.68C80.7298 14.448 79.8338 13.936 79.2418 13.792C79.8018 13.568 80.3938 13.04 80.3938 12.064C80.3938 10.64 79.1618 9.76 77.5618 9.76C75.9938 9.76 74.5698 10.56 74.3938 12.096ZM88.0088 16.688L91.2568 13.696C92.4088 12.64 93.4968 11.584 93.4968 9.872C93.4968 8.048 92.1048 6.56 89.8968 6.56C87.7208 6.56 86.2648 7.888 86.0088 9.792H87.4168C87.6728 8.64 88.5048 7.872 89.8648 7.872C91.1608 7.872 92.0408 8.736 92.0408 9.872C92.0408 11.072 91.3688 11.776 90.2968 12.784L86.0408 16.768V18H93.7688V16.688H88.0088ZM106.986 9.936L104.058 16.368L101.13 9.936H99.45V18H100.794V12.144L103.482 18H104.634L107.306 12.144V18H108.65V9.936H106.986ZM116.516 9.936L112.404 15.872V9.936H111.044V18H112.404L116.516 12.064V18H117.876V9.936H116.516ZM125.638 9.936V13.184H121.654V9.936H120.278V18H121.654V14.432H125.638V18H127.014V9.936H125.638ZM134.795 9.936L132.379 16.224L129.947 9.936H128.459L131.643 17.904L130.379 21.056H131.867L136.283 9.936H134.795ZM143.828 9.936H137.028V11.168H139.732V18H141.108V11.168H143.828V9.936ZM148.728 12.544H146.92V9.936H145.544V18H148.712C150.44 18 151.56 16.816 151.56 15.248C151.56 13.68 150.44 12.544 148.728 12.544ZM152.728 9.936V18H154.104V9.936H152.728ZM148.552 16.784H146.92V13.76H148.552C149.608 13.76 150.184 14.384 150.184 15.248C150.184 16.112 149.608 16.784 148.552 16.784ZM160.013 9.936V18H161.389V11.168H165.325V18H166.701V9.936H160.013ZM173.074 9.76C171.682 9.76 170.834 10.4 170.434 11.088V9.936H169.106V21.056H170.482V17.008C170.866 17.6 171.73 18.176 173.026 18.176C174.882 18.176 176.706 16.816 176.706 13.968C176.706 11.136 174.898 9.76 173.074 9.76ZM172.898 16.928C171.41 16.928 170.434 15.792 170.434 14V13.936C170.434 12.144 171.41 11.008 172.898 11.008C174.338 11.008 175.298 12.208 175.298 13.968C175.298 15.728 174.338 16.928 172.898 16.928ZM184.094 9.936L179.982 15.872V9.936H178.622V18H179.982L184.094 12.064V18H185.454V9.936H184.094ZM194.656 16.752V9.936H188.864L188.544 13.984C188.432 15.36 188.112 16.432 187.584 16.752H186.896V20.048H188.224V18H194.512V20.048H195.84V16.752H194.656ZM189.872 14.016L190.096 11.168H193.28V16.752H189.152C189.68 16.16 189.776 15.12 189.872 14.016ZM204.329 14.384V13.68C204.329 11.28 202.953 9.76 200.809 9.76C198.601 9.76 197.017 11.36 197.017 13.968C197.017 16.56 198.585 18.176 200.921 18.176C203.017 18.176 204.025 16.864 204.233 15.92H202.841C202.697 16.336 202.057 16.944 200.937 16.944C199.449 16.944 198.457 15.856 198.457 14.416V14.384H204.329ZM200.777 10.992C202.073 10.992 202.873 11.824 202.937 13.216H198.473C198.585 11.888 199.433 10.992 200.777 10.992ZM212.046 9.936H205.246V11.168H207.95V18H209.326V11.168H212.046V9.936ZM220.622 16.928C219.166 16.928 218.206 15.728 218.206 13.968C218.206 12.224 219.134 11.008 220.606 11.008C221.886 11.008 222.478 11.84 222.686 12.512H224.062C223.854 11.232 222.75 9.76 220.606 9.76C218.286 9.76 216.798 11.552 216.798 13.968C216.798 16.432 218.318 18.176 220.606 18.176C222.606 18.176 223.886 16.832 224.062 15.392H222.686C222.51 16.08 221.966 16.928 220.622 16.928ZM233.439 9.936L230.511 16.368L227.583 9.936H225.903V18H227.247V12.144L229.935 18H231.087L233.759 12.144V18H235.103V9.936H233.439ZM240.841 16.928C239.385 16.928 238.425 15.728 238.425 13.968C238.425 12.224 239.353 11.008 240.825 11.008C242.105 11.008 242.697 11.84 242.905 12.512H244.281C244.073 11.232 242.969 9.76 240.825 9.76C238.505 9.76 237.017 11.552 237.017 13.968C237.017 16.432 238.537 18.176 240.825 18.176C242.825 18.176 244.105 16.832 244.281 15.392H242.905C242.729 16.08 242.185 16.928 240.841 16.928ZM40.544 40.928C39.088 40.928 38.128 39.728 38.128 37.968C38.128 36.224 39.056 35.008 40.528 35.008C41.808 35.008 42.4 35.84 42.608 36.512H43.984C43.776 35.232 42.672 33.76 40.528 33.76C38.208 33.76 36.72 35.552 36.72 37.968C36.72 40.432 38.24 42.176 40.528 42.176C42.528 42.176 43.808 40.832 43.984 39.392H42.608C42.432 40.08 41.888 40.928 40.544 40.928ZM53.3086 33.76C51.9166 33.76 51.0686 34.4 50.6686 35.088V33.936H49.3406V45.056H50.7166V41.008C51.1006 41.6 51.9646 42.176 53.2606 42.176C55.1166 42.176 56.9406 40.816 56.9406 37.968C56.9406 35.136 55.1326 33.76 53.3086 33.76ZM53.1326 40.928C51.6446 40.928 50.6686 39.792 50.6686 38V37.936C50.6686 36.144 51.6446 35.008 53.1326 35.008C54.5726 35.008 55.5326 36.208 55.5326 37.968C55.5326 39.728 54.5726 40.928 53.1326 40.928ZM65.6883 38.384V37.68C65.6883 35.28 64.3123 33.76 62.1683 33.76C59.9603 33.76 58.3763 35.36 58.3763 37.968C58.3763 40.56 59.9443 42.176 62.2803 42.176C64.3763 42.176 65.3843 40.864 65.5923 39.92H64.2003C64.0563 40.336 63.4163 40.944 62.2963 40.944C60.8083 40.944 59.8163 39.856 59.8163 38.416V38.384H65.6883ZM62.1363 34.992C63.4323 34.992 64.2323 35.824 64.2963 37.216H59.8323C59.9443 35.888 60.7923 34.992 62.1363 34.992ZM76.5663 33.936V40.752H73.4623V33.936H72.0863V40.752H68.9823V33.936H67.6063V42H77.9423V33.936H76.5663ZM87.1726 38.384V37.68C87.1726 35.28 85.7966 33.76 83.6526 33.76C81.4446 33.76 79.8606 35.36 79.8606 37.968C79.8606 40.56 81.4286 42.176 83.7646 42.176C85.8606 42.176 86.8686 40.864 87.0766 39.92H85.6846C85.5406 40.336 84.9006 40.944 83.7806 40.944C82.2926 40.944 81.3006 39.856 81.3006 38.416V38.384H87.1726ZM83.6206 34.992C84.9166 34.992 85.7166 35.824 85.7806 37.216H81.3166C81.4286 35.888 82.2766 34.992 83.6206 34.992ZM94.4506 33.936V37.184H90.4666V33.936H89.0906V42H90.4666V38.432H94.4506V42H95.8266V33.936H94.4506ZM103.703 33.936L99.5913 39.872V33.936H98.2313V42H99.5913L103.703 36.064V42H105.063V33.936H103.703ZM114.298 38.384V37.68C114.298 35.28 112.922 33.76 110.778 33.76C108.57 33.76 106.986 35.36 106.986 37.968C106.986 40.56 108.554 42.176 110.89 42.176C112.986 42.176 113.994 40.864 114.202 39.92H112.81C112.666 40.336 112.026 40.944 110.906 40.944C109.418 40.944 108.426 39.856 108.426 38.416V38.384H114.298ZM110.746 34.992C112.042 34.992 112.842 35.824 112.906 37.216H108.442C108.554 35.888 109.402 34.992 110.746 34.992ZM123.752 33.936L120.824 40.368L117.896 33.936H116.216V42H117.56V36.144L120.248 42H121.4L124.072 36.144V42H125.416V33.936H123.752Z" fill="#2B2D33"/>
</svg>
