<svg width="260" height="48" viewBox="0 0 260 48" fill="none" xmlns="http://www.w3.org/2000/svg">
<path d="M21 8.4C21 7.84165 20.7788 7.30617 20.385 6.91135C19.9913 6.51654 19.4572 6.29474 18.9004 6.29474H17.7246L12.6016 0H0.00398527V2.10526H11.7303L15.0686 6.31579H8.71733L6.70171 8.42105L11.7618 13.1789L11.2054 13.9474C9.65165 13.1895 4.90655 10.7368 3.14289 9C2.78945 8.654 2.51315 8.23683 2.3322 7.77598C2.15125 7.31512 2.06976 6.82105 2.09309 6.32632H0.00398527C-0.0251966 7.10411 0.106133 7.87956 0.389746 8.60409C0.673359 9.32862 1.10314 9.98661 1.65217 10.5368C3.39484 12.2737 8.30791 14.8632 10.3655 15.8947C10.7922 16.1096 11.282 16.163 11.7448 16.0451C12.2076 15.9271 12.6124 15.6458 12.885 15.2526L13.7354 13.9474C13.9186 13.4981 13.9414 12.999 13.7998 12.5348C13.6583 12.0706 13.3611 11.6697 12.9585 11.4L9.71464 8.37895H18.9004V10.4842H13.6514L14.2603 10.9895C14.7004 11.4229 14.9972 11.9814 15.1106 12.5895H18.9004V17.8526H5.25299V14.8842L3.15339 13.6842V17.8947C3.15339 18.4531 3.3746 18.9886 3.76835 19.3834C4.1621 19.7782 4.69614 20 5.25299 20H18.9004C19.4572 20 19.9913 19.7782 20.385 19.3834C20.7788 18.9886 21 18.4531 21 17.8947V8.4Z" fill="#2B2D33"/>
<path d="M36.408 4.736V16H37.832V6.048H43.8V16H45.224V4.736H36.408ZM51.217 7.76C48.865 7.76 47.345 9.52 47.345 11.968C47.345 14.416 48.865 16.176 51.217 16.176C53.569 16.176 55.089 14.416 55.089 11.968C55.089 9.52 53.569 7.76 51.217 7.76ZM51.217 14.928C49.697 14.928 48.753 13.728 48.753 11.968C48.753 10.208 49.697 9.008 51.217 9.008C52.737 9.008 53.681 10.208 53.681 11.968C53.681 13.728 52.737 14.928 51.217 14.928ZM57.9599 7.936L57.5439 12.88C57.4319 14.272 57.1439 14.784 56.1359 14.784H55.9119V16.032H56.2959C57.9439 16.032 58.6959 15.168 58.8719 12.976L59.1919 9.168H62.1519V16H63.5279V7.936H57.9599ZM71.3104 7.936L68.8944 14.224L66.4624 7.936H64.9744L68.1584 15.904L66.8944 19.056H68.3824L72.7984 7.936H71.3104ZM78.9033 7.936V11.472C78.5193 11.712 78.0073 11.888 77.2873 11.888C76.0393 11.888 75.2873 11.232 75.2873 9.856V7.936H73.9113V9.888C73.9113 12.08 75.2393 13.136 77.1273 13.136C77.9113 13.136 78.4873 12.96 78.9033 12.72V16H80.2793V7.936H78.9033ZM88.1564 7.936L84.0444 13.872V7.936H82.6844V16H84.0444L88.1564 10.064V16H89.5164V7.936H88.1564ZM98.0308 7.936H91.2308V9.168H93.9348V16H95.3108V9.168H98.0308V7.936ZM106.173 12.384V11.68C106.173 9.28 104.797 7.76 102.653 7.76C100.445 7.76 98.8606 9.36 98.8606 11.968C98.8606 14.56 100.429 16.176 102.765 16.176C104.861 16.176 105.869 14.864 106.077 13.92H104.685C104.541 14.336 103.901 14.944 102.781 14.944C101.293 14.944 100.301 13.856 100.301 12.416V12.384H106.173ZM102.621 8.992C103.917 8.992 104.717 9.824 104.781 11.216H100.317C100.429 9.888 101.277 8.992 102.621 8.992ZM118.262 16L114.422 11.696L118.214 7.936H116.47L112.982 11.392V7.936H111.606V16H112.982V12.096L116.486 16H118.262ZM122.568 7.76C120.728 7.76 119.608 8.8 119.352 10.048H120.68C120.904 9.456 121.48 8.976 122.536 8.976C123.576 8.976 124.36 9.536 124.36 10.656V11.2H122.216C120.248 11.2 119.048 12.144 119.048 13.696C119.048 15.232 120.264 16.176 121.832 16.176C122.856 16.176 123.816 15.792 124.424 15.04V16H125.72V10.656C125.72 8.848 124.456 7.76 122.568 7.76ZM122.008 14.976C121.112 14.976 120.44 14.528 120.44 13.68C120.44 12.816 121.192 12.368 122.296 12.368H124.36V12.96C124.36 14.192 123.288 14.976 122.008 14.976ZM132.012 7.76C130.62 7.76 129.772 8.4 129.372 9.088V7.936H128.044V19.056H129.42V15.008C129.804 15.6 130.668 16.176 131.964 16.176C133.82 16.176 135.644 14.816 135.644 11.968C135.644 9.136 133.836 7.76 132.012 7.76ZM131.836 14.928C130.348 14.928 129.372 13.792 129.372 12V11.936C129.372 10.144 130.348 9.008 131.836 9.008C133.276 9.008 134.236 10.208 134.236 11.968C134.236 13.728 133.276 14.928 131.836 14.928ZM143.265 7.936H136.465V9.168H139.169V16H140.545V9.168H143.265V7.936ZM150.357 7.936L147.941 14.224L145.509 7.936H144.021L147.205 15.904L145.941 19.056H147.429L151.845 7.936H150.357ZM160.138 14.928C158.682 14.928 157.722 13.728 157.722 11.968C157.722 10.224 158.65 9.008 160.122 9.008C161.402 9.008 161.994 9.84 162.202 10.512H163.578C163.37 9.232 162.266 7.76 160.122 7.76C157.802 7.76 156.314 9.552 156.314 11.968C156.314 14.432 157.834 16.176 160.122 16.176C162.122 16.176 163.402 14.832 163.578 13.392H162.202C162.026 14.08 161.482 14.928 160.138 14.928ZM172.758 7.936C171.542 7.936 170.566 8.4 169.958 9.296C170.15 7.472 170.886 6.464 172.71 6.128L175.654 5.584V4.256L172.422 4.912C169.702 5.472 168.566 7.248 168.566 11.28C168.566 14.4 170.166 16.176 172.63 16.176C174.982 16.176 176.454 14.336 176.454 12.032C176.454 9.392 174.838 7.936 172.758 7.936ZM172.566 14.928C171.046 14.928 170.022 13.792 170.022 11.968C170.022 10.16 171.158 9.168 172.582 9.168C174.07 9.168 175.046 10.352 175.046 12.032C175.046 13.712 174.086 14.928 172.566 14.928ZM185.204 12.384V11.68C185.204 9.28 183.828 7.76 181.684 7.76C179.476 7.76 177.892 9.36 177.892 11.968C177.892 14.56 179.46 16.176 181.796 16.176C183.892 16.176 184.9 14.864 185.108 13.92H183.716C183.572 14.336 182.932 14.944 181.812 14.944C180.324 14.944 179.332 13.856 179.332 12.416V12.384H185.204ZM181.652 8.992C182.948 8.992 183.748 9.824 183.812 11.216H179.348C179.46 9.888 180.308 8.992 181.652 8.992ZM190.466 14.928C189.01 14.928 188.05 13.728 188.05 11.968C188.05 10.224 188.978 9.008 190.45 9.008C191.73 9.008 192.322 9.84 192.53 10.512H193.906C193.698 9.232 192.594 7.76 190.45 7.76C188.13 7.76 186.642 9.552 186.642 11.968C186.642 14.432 188.162 16.176 190.45 16.176C192.45 16.176 193.73 14.832 193.906 13.392H192.53C192.354 14.08 191.81 14.928 190.466 14.928ZM195.747 7.936V16H197.123V9.168H201.059V16H202.435V7.936H195.747ZM205.929 7.936L205.513 12.88C205.401 14.272 205.113 14.784 204.105 14.784H203.881V16.032H204.265C205.913 16.032 206.665 15.168 206.841 12.976L207.161 9.168H210.121V16H211.497V7.936H205.929ZM216.927 7.76C215.087 7.76 213.967 8.8 213.711 10.048H215.039C215.263 9.456 215.839 8.976 216.895 8.976C217.935 8.976 218.719 9.536 218.719 10.656V11.2H216.575C214.607 11.2 213.407 12.144 213.407 13.696C213.407 15.232 214.623 16.176 216.191 16.176C217.215 16.176 218.175 15.792 218.783 15.04V16H220.079V10.656C220.079 8.848 218.815 7.76 216.927 7.76ZM216.367 14.976C215.471 14.976 214.799 14.528 214.799 13.68C214.799 12.816 215.551 12.368 216.655 12.368H218.719V12.96C218.719 14.192 217.647 14.976 216.367 14.976ZM228.359 7.936H221.559V9.168H224.263V16H225.639V9.168H228.359V7.936ZM235.435 7.936V11.184H231.451V7.936H230.075V16H231.451V12.432H235.435V16H236.811V7.936H235.435ZM242.608 7.76C240.256 7.76 238.736 9.52 238.736 11.968C238.736 14.416 240.256 16.176 242.608 16.176C244.96 16.176 246.48 14.416 246.48 11.968C246.48 9.52 244.96 7.76 242.608 7.76ZM242.608 14.928C241.088 14.928 240.144 13.728 240.144 11.968C240.144 10.208 241.088 9.008 242.608 9.008C244.128 9.008 245.072 10.208 245.072 11.968C245.072 13.728 244.128 14.928 242.608 14.928ZM251.827 6.736C253.331 6.736 254.339 5.728 254.371 4.24H253.139C253.139 5.008 252.691 5.648 251.827 5.648C250.963 5.648 250.515 5.008 250.515 4.24H249.283C249.315 5.728 250.323 6.736 251.827 6.736ZM253.875 7.936L249.763 13.872V7.936H248.403V16H249.763L253.875 10.064V16H255.235V7.936H253.875ZM43 38.752V31.936H37.208L36.888 35.984C36.776 37.36 36.456 38.432 35.928 38.752H35.24V42.048H36.568V40H42.856V42.048H44.184V38.752H43ZM38.216 36.016L38.44 33.168H41.624V38.752H37.496C38.024 38.16 38.12 37.12 38.216 36.016ZM49.2326 31.76C46.8806 31.76 45.3606 33.52 45.3606 35.968C45.3606 38.416 46.8806 40.176 49.2326 40.176C51.5846 40.176 53.1046 38.416 53.1046 35.968C53.1046 33.52 51.5846 31.76 49.2326 31.76ZM49.2326 38.928C47.7126 38.928 46.7686 37.728 46.7686 35.968C46.7686 34.208 47.7126 33.008 49.2326 33.008C50.7526 33.008 51.6966 34.208 51.6966 35.968C51.6966 37.728 50.7526 38.928 49.2326 38.928ZM58.3721 38.928C56.9161 38.928 55.9561 37.728 55.9561 35.968C55.9561 34.224 56.8841 33.008 58.3561 33.008C59.6361 33.008 60.2281 33.84 60.4361 34.512H61.8121C61.6041 33.232 60.5001 31.76 58.3561 31.76C56.0361 31.76 54.5481 33.552 54.5481 35.968C54.5481 38.432 56.0681 40.176 58.3561 40.176C60.3561 40.176 61.6361 38.832 61.8121 37.392H60.4361C60.2601 38.08 59.7161 38.928 58.3721 38.928ZM69.5464 31.936H62.7464V33.168H65.4504V40H66.8264V33.168H69.5464V31.936ZM74.1302 31.76C72.2903 31.76 71.1703 32.8 70.9143 34.048H72.2423C72.4663 33.456 73.0423 32.976 74.0983 32.976C75.1383 32.976 75.9223 33.536 75.9223 34.656V35.2H73.7783C71.8103 35.2 70.6103 36.144 70.6103 37.696C70.6103 39.232 71.8263 40.176 73.3943 40.176C74.4183 40.176 75.3783 39.792 75.9863 39.04V40H77.2823V34.656C77.2823 32.848 76.0183 31.76 74.1302 31.76ZM73.5703 38.976C72.6743 38.976 72.0023 38.528 72.0023 37.68C72.0023 36.816 72.7543 36.368 73.8583 36.368H75.9223V36.96C75.9223 38.192 74.8503 38.976 73.5703 38.976ZM84.5023 35.744C85.0303 35.536 85.5583 34.96 85.5583 34.016C85.5583 32.864 84.7423 31.936 83.0303 31.936H79.6063V40H83.2223C84.9503 40 85.9103 39.008 85.9103 37.712C85.9103 36.592 85.2223 35.936 84.5023 35.744ZM84.1983 34.176C84.1983 34.848 83.7503 35.28 82.9023 35.28H80.9663V33.12H82.9023C83.7503 33.12 84.1983 33.488 84.1983 34.176ZM83.0623 38.816H80.9663V36.448H83.0623C84.0543 36.448 84.5343 36.864 84.5343 37.6C84.5343 38.352 84.0543 38.816 83.0623 38.816ZM94.481 40L90.641 35.696L94.433 31.936H92.689L89.201 35.392V31.936H87.825V40H89.201V36.096L92.705 40H94.481ZM98.9045 31.76C96.5525 31.76 95.0325 33.52 95.0325 35.968C95.0325 38.416 96.5525 40.176 98.9045 40.176C101.257 40.176 102.777 38.416 102.777 35.968C102.777 33.52 101.257 31.76 98.9045 31.76ZM98.9045 38.928C97.3845 38.928 96.4405 37.728 96.4405 35.968C96.4405 34.208 97.3845 33.008 98.9045 33.008C100.425 33.008 101.369 34.208 101.369 35.968C101.369 37.728 100.425 38.928 98.9045 38.928ZM108.124 30.736C109.628 30.736 110.636 29.728 110.668 28.24H109.436C109.436 29.008 108.988 29.648 108.124 29.648C107.26 29.648 106.812 29.008 106.812 28.24H105.58C105.612 29.728 106.62 30.736 108.124 30.736ZM110.172 31.936L106.06 37.872V31.936H104.7V40H106.06L110.172 34.064V40H111.532V31.936H110.172ZM122.922 31.936L118.81 37.872V31.936H117.45V40H118.81L122.922 34.064V40H124.282V31.936H122.922ZM127.772 31.936L127.356 36.88C127.244 38.272 126.956 38.784 125.948 38.784H125.724V40.032H126.108C127.756 40.032 128.508 39.168 128.684 36.976L129.004 33.168H131.964V40H133.34V31.936H127.772ZM141.219 31.936L137.107 37.872V31.936H135.747V40H137.107L141.219 34.064V40H142.579V31.936H141.219ZM153.393 35.744C153.921 35.536 154.449 34.96 154.449 34.016C154.449 32.864 153.633 31.936 151.921 31.936H148.497V40H152.113C153.841 40 154.801 39.008 154.801 37.712C154.801 36.592 154.113 35.936 153.393 35.744ZM153.089 34.176C153.089 34.848 152.641 35.28 151.793 35.28H149.857V33.12H151.793C152.641 33.12 153.089 33.488 153.089 34.176ZM151.953 38.816H149.857V36.448H151.953C152.945 36.448 153.425 36.864 153.425 37.6C153.425 38.352 152.945 38.816 151.953 38.816ZM163.623 31.76C161.271 31.76 159.751 33.52 159.751 35.968C159.751 38.416 161.271 40.176 163.623 40.176C165.975 40.176 167.495 38.416 167.495 35.968C167.495 33.52 165.975 31.76 163.623 31.76ZM163.623 38.928C162.103 38.928 161.159 37.728 161.159 35.968C161.159 34.208 162.103 33.008 163.623 33.008C165.143 33.008 166.087 34.208 166.087 35.968C166.087 37.728 165.143 38.928 163.623 38.928ZM175.125 31.936H168.325V33.168H171.029V40H172.405V33.168H175.125V31.936ZM183.156 38.752V31.936H177.364L177.044 35.984C176.932 37.36 176.612 38.432 176.084 38.752H175.396V42.048H176.724V40H183.012V42.048H184.34V38.752H183.156ZM178.372 36.016L178.596 33.168H181.78V38.752H177.652C178.18 38.16 178.276 37.12 178.372 36.016ZM192.829 36.384V35.68C192.829 33.28 191.453 31.76 189.309 31.76C187.101 31.76 185.517 33.36 185.517 35.968C185.517 38.56 187.085 40.176 189.421 40.176C191.517 40.176 192.525 38.864 192.733 37.92H191.341C191.197 38.336 190.557 38.944 189.437 38.944C187.949 38.944 186.957 37.856 186.957 36.416V36.384H192.829ZM189.277 32.992C190.573 32.992 191.373 33.824 191.437 35.216H186.973C187.085 33.888 187.933 32.992 189.277 32.992ZM195.757 31.936L195.341 36.88C195.229 38.272 194.941 38.784 193.933 38.784H193.709V40.032H194.093C195.741 40.032 196.493 39.168 196.669 36.976L196.989 33.168H199.949V40H201.325V31.936H195.757ZM210.563 36.384V35.68C210.563 33.28 209.187 31.76 207.043 31.76C204.835 31.76 203.251 33.36 203.251 35.968C203.251 38.56 204.819 40.176 207.155 40.176C209.251 40.176 210.259 38.864 210.467 37.92H209.075C208.931 38.336 208.291 38.944 207.171 38.944C205.683 38.944 204.691 37.856 204.691 36.416V36.384H210.563ZM207.011 32.992C208.307 32.992 209.107 33.824 209.171 35.216H204.707C204.819 33.888 205.667 32.992 207.011 32.992ZM217.841 31.936V35.184H213.857V31.936H212.481V40H213.857V36.432H217.841V40H219.217V31.936H217.841ZM227.094 31.936L222.982 37.872V31.936H221.622V40H222.982L227.094 34.064V40H228.454V31.936H227.094ZM236.328 31.936L232.216 37.872V31.936H230.856V40H232.216L236.328 34.064V40H237.688V31.936H236.328Z" fill="#2B2D33"/>
</svg>
